<svg width="49" height="44" viewBox="0 0 49 44" fill="none" xmlns="http://www.w3.org/2000/svg">
<path d="M45.3335 15.1181L42.0845 5.37113C41.6132 3.95202 40.7066 2.71754 39.4937 1.84308C38.2807 0.968625 36.823 0.498674 35.3276 0.500003H13.6724C12.177 0.498674 10.7193 0.968625 9.50635 1.84308C8.29337 2.71754 7.38681 3.95202 6.9155 5.37113L3.6665 15.1181C2.80253 15.4796 2.06471 16.0885 1.54578 16.8681C1.02686 17.6478 0.749999 18.5634 0.75 19.5V31.375C0.75 33.1278 1.7095 34.643 3.125 35.4671V40.875C3.125 41.5049 3.37522 42.109 3.82062 42.5544C4.26602 42.9998 4.87011 43.25 5.5 43.25H7.875C8.50489 43.25 9.10898 42.9998 9.55438 42.5544C9.99978 42.109 10.25 41.5049 10.25 40.875V36.125H38.75V40.875C38.75 41.5049 39.0002 42.109 39.4456 42.5544C39.891 42.9998 40.4951 43.25 41.125 43.25H43.5C44.1299 43.25 44.734 42.9998 45.1794 42.5544C45.6248 42.109 45.875 41.5049 45.875 40.875V35.4671C46.5956 35.0539 47.1945 34.4581 47.6114 33.7397C48.0284 33.0212 48.2486 32.2056 48.25 31.375V19.5C48.25 18.5634 47.9731 17.6478 47.4542 16.8681C46.9353 16.0885 46.1975 15.4796 45.3335 15.1181ZM13.6724 5.25H35.3253C36.3489 5.25 37.2561 5.90075 37.5791 6.8745L40.2059 14.75H8.79413L11.4185 6.8745C11.5761 6.40139 11.8786 5.98988 12.2831 5.6983C12.6877 5.40673 13.1737 5.24988 13.6724 5.25ZM9.0625 29C8.59451 28.9998 8.13113 28.9075 7.69883 28.7283C7.26652 28.549 6.87375 28.2864 6.54294 27.9554C6.21213 27.6244 5.94976 27.2314 5.77082 26.799C5.59187 26.3666 5.49984 25.9031 5.5 25.4351C5.50016 24.9671 5.59249 24.5038 5.77172 24.0715C5.95096 23.6391 6.21359 23.2464 6.54462 22.9156C6.87565 22.5848 7.26859 22.3224 7.70102 22.1434C8.13345 21.9645 8.59688 21.8725 9.06487 21.8726C10.01 21.8729 10.9163 22.2487 11.5844 22.9172C12.2525 23.5858 12.6277 24.4924 12.6274 25.4375C12.6271 26.3827 12.2513 27.289 11.5828 27.9571C10.9142 28.6252 10.0076 29.0003 9.0625 29ZM39.9375 29C39.4695 28.9998 39.0061 28.9075 38.5738 28.7283C38.1415 28.549 37.7487 28.2864 37.4179 27.9554C37.0871 27.6244 36.8248 27.2314 36.6458 26.799C36.4669 26.3666 36.3748 25.9031 36.375 25.4351C36.3752 24.9671 36.4675 24.5038 36.6467 24.0715C36.826 23.6391 37.0886 23.2464 37.4196 22.9156C37.7506 22.5848 38.1436 22.3224 38.576 22.1434C39.0084 21.9645 39.4719 21.8725 39.9399 21.8726C40.885 21.8729 41.7913 22.2487 42.4594 22.9172C43.1275 23.5858 43.5027 24.4924 43.5024 25.4375C43.5021 26.3827 43.1263 27.289 42.4578 27.9571C41.7892 28.6252 40.8826 29.0003 39.9375 29Z" fill="#FFC107"/>
</svg>
