<svg width="24" height="29" viewBox="0 0 24 29" fill="none" xmlns="http://www.w3.org/2000/svg">
<path d="M20 9.66665H22.6667C23.0203 9.66665 23.3594 9.80712 23.6095 10.0572C23.8595 10.3072 24 10.6464 24 11V27C24 27.3536 23.8595 27.6927 23.6095 27.9428C23.3594 28.1928 23.0203 28.3333 22.6667 28.3333H1.33333C0.979711 28.3333 0.640573 28.1928 0.390524 27.9428C0.140476 27.6927 0 27.3536 0 27V11C0 10.6464 0.140476 10.3072 0.390524 10.0572C0.640573 9.80712 0.979711 9.66665 1.33333 9.66665H4V8.33331C4 6.21158 4.84285 4.17675 6.34315 2.67646C7.84344 1.17617 9.87827 0.333313 12 0.333313C14.1217 0.333313 16.1566 1.17617 17.6569 2.67646C19.1571 4.17675 20 6.21158 20 8.33331V9.66665ZM2.66667 12.3333V25.6666H21.3333V12.3333H2.66667ZM10.6667 17.6666H13.3333V20.3333H10.6667V17.6666ZM5.33333 17.6666H8V20.3333H5.33333V17.6666ZM16 17.6666H18.6667V20.3333H16V17.6666ZM17.3333 9.66665V8.33331C17.3333 6.91883 16.7714 5.56227 15.7712 4.56208C14.771 3.56188 13.4145 2.99998 12 2.99998C10.5855 2.99998 9.22896 3.56188 8.22876 4.56208C7.22857 5.56227 6.66667 6.91883 6.66667 8.33331V9.66665H17.3333Z" fill="white"/>
</svg>
